<svg width="40" height="9" viewBox="0 0 40 9" fill="none" xmlns="http://www.w3.org/2000/svg">
<path d="M5.28041 7.30238C5.36147 6.90035 5.44153 6.4981 5.36107 6.09118C5.26385 5.59063 5.00473 5.16847 4.53694 4.85066C3.79381 4.34706 2.77414 4.03763 2.38238 3.24152C2.11169 2.6921 2.32146 2.08496 2.55929 1.55938C2.59846 1.47214 2.63548 1.39173 2.67592 1.30386C2.45729 1.32712 2.25129 1.38535 2.06027 1.47449C0.869427 2.04585 0.73304 3.77666 1.76109 5.34514C2.653 6.70471 4.12748 7.49299 5.28041 7.30238Z" fill="#1E1E1C"/>
<path d="M3.08407 1.29694C3.08086 1.3072 3.0731 1.31825 3.06807 1.33085C2.81103 1.90059 2.56406 2.5716 2.9544 3.14657C3.491 3.93919 4.60879 4.1547 5.29991 4.81042C5.66865 5.16695 5.87092 5.63015 5.88747 6.104C5.9069 6.4832 5.81941 6.85443 5.74846 7.22762C5.81197 7.20642 5.87702 7.18374 5.94174 7.15182C7.13177 6.58303 7.26443 4.85045 6.23865 3.28157C5.43772 2.06286 4.16958 1.30073 3.08407 1.29694Z" fill="#1E1E1C"/>
<path d="M13.2804 7.30238C13.3615 6.90035 13.4415 6.4981 13.3611 6.09118C13.2638 5.59063 13.0047 5.16847 12.5369 4.85066C11.7938 4.34706 10.7741 4.03763 10.3824 3.24152C10.1117 2.6921 10.3215 2.08496 10.5593 1.55938C10.5985 1.47214 10.6355 1.39173 10.6759 1.30386C10.4573 1.32712 10.2513 1.38535 10.0603 1.47449C8.86943 2.04585 8.73304 3.77666 9.76109 5.34514C10.653 6.70471 12.1275 7.49299 13.2804 7.30238Z" fill="#1E1E1C"/>
<path d="M11.0841 1.29694C11.0809 1.3072 11.0731 1.31825 11.0681 1.33085C10.811 1.90059 10.5641 2.5716 10.9544 3.14657C11.491 3.93919 12.6088 4.1547 13.2999 4.81042C13.6687 5.16695 13.8709 5.63015 13.8875 6.104C13.9069 6.4832 13.8194 6.85443 13.7485 7.22762C13.812 7.20642 13.877 7.18374 13.9417 7.15182C15.1318 6.58303 15.2644 4.85045 14.2386 3.28157C13.4377 2.06286 12.1696 1.30073 11.0841 1.29694Z" fill="#1E1E1C"/>
<path d="M21.2804 7.30238C21.3615 6.90035 21.4415 6.4981 21.3611 6.09118C21.2638 5.59063 21.0047 5.16847 20.5369 4.85066C19.7938 4.34706 18.7741 4.03763 18.3824 3.24152C18.1117 2.6921 18.3215 2.08496 18.5593 1.55938C18.5985 1.47214 18.6355 1.39173 18.6759 1.30386C18.4573 1.32712 18.2513 1.38535 18.0603 1.47449C16.8694 2.04585 16.733 3.77666 17.7611 5.34514C18.653 6.70471 20.1275 7.49299 21.2804 7.30238Z" fill="#1E1E1C"/>
<path d="M19.0841 1.29694C19.0809 1.3072 19.0731 1.31825 19.0681 1.33085C18.811 1.90059 18.5641 2.5716 18.9544 3.14657C19.491 3.93919 20.6088 4.1547 21.2999 4.81042C21.6687 5.16695 21.8709 5.63015 21.8875 6.104C21.9069 6.4832 21.8194 6.85443 21.7485 7.22762C21.812 7.20642 21.877 7.18374 21.9417 7.15182C23.1318 6.58303 23.2644 4.85045 22.2386 3.28157C21.4377 2.06286 20.1696 1.30073 19.0841 1.29694Z" fill="#1E1E1C"/>
<g opacity="0.25">
<path d="M29.2807 7.30219C29.3617 6.90017 29.4418 6.49792 29.3613 6.09099C29.2641 5.59044 29.005 5.16829 28.5372 4.85048C27.7941 4.34687 26.7744 4.03745 26.3826 3.24133C26.1119 2.69191 26.3217 2.08478 26.5595 1.5592C26.5987 1.47195 26.6357 1.39155 26.6762 1.30368C26.4575 1.32694 26.2515 1.38517 26.0605 1.47431C24.8697 2.04567 24.7333 3.77647 25.7613 5.34496C26.6532 6.70453 28.1277 7.4928 29.2807 7.30219Z" fill="#1E1E1C"/>
<path d="M27.0843 1.29676C27.0811 1.30702 27.0733 1.31807 27.0683 1.33067C26.8113 1.90041 26.5643 2.57142 26.9546 3.14639C27.4912 3.93901 28.609 4.15451 29.3001 4.81023C29.6689 5.16676 29.8712 5.62997 29.8877 6.10381C29.9071 6.48302 29.8197 6.85425 29.7487 7.22744C29.8122 7.20624 29.8773 7.18356 29.942 7.15164C31.132 6.58285 31.2647 4.85027 30.2389 3.28139C29.438 2.06267 28.1698 1.30055 27.0843 1.29676Z" fill="#1E1E1C"/>
</g>
<g opacity="0.25">
<path d="M37.2804 7.30219C37.3615 6.90017 37.4415 6.49792 37.3611 6.09099C37.2638 5.59044 37.0047 5.16829 36.5369 4.85048C35.7938 4.34687 34.7741 4.03745 34.3824 3.24133C34.1117 2.69191 34.3215 2.08478 34.5593 1.5592C34.5985 1.47195 34.6355 1.39155 34.6759 1.30368C34.4573 1.32694 34.2513 1.38517 34.0603 1.47431C32.8694 2.04567 32.733 3.77647 33.7611 5.34496C34.653 6.70453 36.1275 7.4928 37.2804 7.30219Z" fill="#1E1E1C"/>
<path d="M35.0841 1.29676C35.0809 1.30702 35.0731 1.31807 35.0681 1.33067C34.811 1.90041 34.5641 2.57142 34.9544 3.14639C35.491 3.93901 36.6088 4.15451 37.2999 4.81023C37.6687 5.16676 37.8709 5.62997 37.8875 6.10381C37.9069 6.48302 37.8194 6.85425 37.7485 7.22744C37.812 7.20624 37.877 7.18356 37.9417 7.15164C39.1318 6.58285 39.2644 4.85027 38.2386 3.28139C37.4377 2.06267 36.1696 1.30055 35.0841 1.29676Z" fill="#1E1E1C"/>
</g>
</svg>
